<svg viewBox="0 0 20 19" xmlns="http://www.w3.org/2000/svg">
    <path d="M10.0952 0.319275C5.00692 0.319275 0.88147 4.44472 0.88147 9.533C0.88147 14.6213 5.00692 18.7467 10.0952 18.7467C15.1835 18.7467 19.3089 14.6213 19.3089 9.533C19.3089 4.44472 15.1835 0.319275 10.0952 0.319275ZM10.0952 14.3318C9.56541 14.3318 9.13543 13.9018 9.13543 13.3721C9.13543 12.8423 9.56541 12.4123 10.0952 12.4123C10.6258 12.4123 11.055 12.8423 11.055 13.3721C11.055 13.9018 10.6258 14.3318 10.0952 14.3318ZM11.6009 9.78024C10.9068 10.5289 10.8738 10.9427 10.883 11.4525H9.34351C9.33813 10.32 9.35887 9.82093 10.4422 8.78976C10.8822 8.37207 11.2293 8.04115 11.1809 7.39158C11.1363 6.77349 10.6204 6.45024 10.1328 6.45024C9.58844 6.45024 8.95193 6.85488 8.95193 7.99584H7.40863C7.40863 6.1531 8.49047 4.96299 10.1651 4.96299C10.9605 4.96299 11.6562 5.22328 12.123 5.69625C12.5606 6.14005 12.7871 6.74969 12.7787 7.46068C12.7664 8.52256 12.1207 9.21973 11.6009 9.78024V9.78024Z"
    />
</svg>
