<svg width="18" height="18" viewBox="0 0 18 18" fill="none" xmlns="http://www.w3.org/2000/svg">
<path d="M16.826 1.41812C16.4363 1.02847 15.9077 0.80957 15.3566 0.80957C14.8056 0.80957 14.277 1.02847 13.8873 1.41812L12.9714 2.33407L15.91 5.27274L16.826 4.35678C17.2156 3.96707 17.4345 3.43854 17.4345 2.88745C17.4345 2.33636 17.2156 1.80783 16.826 1.41812ZM15.0701 6.1127L12.1314 3.17403L2.51265 12.7928C2.02407 13.2811 1.66491 13.8835 1.46765 14.5455L0.834314 16.6712C0.803736 16.7737 0.801456 16.8827 0.827713 16.9864C0.853971 17.0902 0.90779 17.1849 0.983476 17.2606C1.05916 17.3363 1.1539 17.3901 1.25766 17.4164C1.36143 17.4426 1.47036 17.4404 1.57294 17.4098L3.69856 16.7765C4.36058 16.5792 4.96298 16.22 5.45131 15.7315L15.0701 6.1127Z" fill="black"/>
</svg>
