<svg width="18" height="19" viewBox="0 0 18 19" fill="none" xmlns="http://www.w3.org/2000/svg">
<path d="M9 0C11.314 0 13.456 0.408 15.058 1.109C15.857 1.459 16.567 1.901 17.09 2.443C17.575 2.943 17.935 3.571 17.992 4.299L18 4.5V14.5C18 15.314 17.619 16.01 17.09 16.557C16.567 17.099 15.857 17.541 15.058 17.891C13.456 18.591 11.314 19 9 19C6.686 19 4.544 18.592 2.942 17.891C2.143 17.541 1.433 17.099 0.91 16.557C0.425 16.057 0.0649999 15.429 0.0079999 14.701L0 14.5V4.5C0 3.686 0.381 2.99 0.91 2.443C1.433 1.901 2.143 1.459 2.942 1.109C4.544 0.409 6.686 0 9 0ZM16 12.407C15.697 12.589 15.3823 12.7507 15.058 12.891C13.456 13.591 11.314 14 9 14C6.686 14 4.544 13.592 2.942 12.891C2.61765 12.7507 2.30296 12.589 2 12.407V14.5C2 14.652 2.066 14.876 2.348 15.167C2.634 15.463 3.096 15.775 3.744 16.059C5.038 16.625 6.895 17 9 17C11.105 17 12.962 16.625 14.256 16.059C14.904 15.775 15.366 15.463 15.652 15.167C15.934 14.877 16 14.652 16 14.5V12.407ZM16 7.407C15.697 7.58896 15.3823 7.75065 15.058 7.891C13.456 8.591 11.314 9 9 9C6.686 9 4.544 8.592 2.942 7.891C2.61765 7.75065 2.30296 7.58896 2 7.407V9.5C2 9.652 2.066 9.876 2.348 10.167C2.634 10.463 3.096 10.775 3.744 11.059C5.038 11.625 6.895 12 9 12C11.105 12 12.962 11.625 14.256 11.059C14.904 10.775 15.366 10.463 15.652 10.167C15.934 9.877 16 9.652 16 9.5V7.407ZM9 2C6.895 2 5.038 2.375 3.744 2.941C3.096 3.225 2.634 3.537 2.348 3.833C2.066 4.123 2 4.348 2 4.5C2 4.652 2.066 4.876 2.348 5.167C2.634 5.463 3.096 5.775 3.744 6.059C5.038 6.625 6.895 7 9 7C11.105 7 12.962 6.625 14.256 6.059C14.904 5.775 15.366 5.463 15.652 5.167C15.934 4.877 16 4.652 16 4.5C16 4.348 15.934 4.124 15.652 3.833C15.366 3.537 14.904 3.225 14.256 2.941C12.962 2.375 11.105 2 9 2Z" fill="black"/>
</svg>
