<svg width="20" height="22" viewBox="0 0 20 22" fill="none" xmlns="http://www.w3.org/2000/svg">
<path d="M18.9999 15H2.88993C2.40293 15 2.04093 15.172 1.75693 15.451C1.28793 15.911 1.11993 16.591 1.04593 17.243C0.959931 17.998 0.990931 18.689 1.20093 19.438C1.43693 20.273 2.02093 21 2.88593 21H18.9999M17.4059 21C15.8669 19.588 15.2359 17.142 17.4059 15M9.81793 5.5C9.81793 3 7.10893 2 7.10893 2M9.81793 5.921C9.81793 5.921 3.85893 2.856 3.85893 7.908C3.85993 12.961 6.56993 15 7.65093 15C8.51293 15 9.02093 13.991 9.81793 13.991C10.6149 13.991 10.8999 15 11.9839 15C13.0639 15 15.7759 12.96 15.7759 7.908C15.7759 2.856 9.81793 5.921 9.81793 5.921ZM10.3589 5C10.3589 1.01 12.3099 2 13.2859 1C14.2609 3.5 12.9559 4.003 10.3589 5Z" stroke="black" stroke-width="1.5" stroke-linecap="round" stroke-linejoin="round"/>
</svg>
