<svg width="16" height="20" viewBox="0 0 16 20" fill="none" xmlns="http://www.w3.org/2000/svg">
<path fill-rule="evenodd" clip-rule="evenodd" d="M3 0.25C2.27065 0.25 1.57118 0.539731 1.05546 1.05546C0.539731 1.57118 0.25 2.27065 0.25 3V17C0.25 17.7293 0.539731 18.4288 1.05546 18.9445C1.57118 19.4603 2.27065 19.75 3 19.75H13C13.7293 19.75 14.4288 19.4603 14.9445 18.9445C15.4603 18.4288 15.75 17.7293 15.75 17V5.968C15.75 5.587 15.626 5.217 15.396 4.913L12.398 0.945C12.2349 0.729116 12.0239 0.553999 11.7817 0.433408C11.5395 0.312817 11.2726 0.250036 11.002 0.25H3ZM1.75 3C1.75 2.31 2.31 1.75 3 1.75H10.25V6.147C10.25 6.561 10.586 6.897 11 6.897H14.25V17C14.25 17.69 13.69 18.25 13 18.25H3C2.31 18.25 1.75 17.69 1.75 17V3Z" fill="black"/>
</svg>
