<svg width="25" height="25" viewBox="0 0 23 23" fill="none" xmlns="http://www.w3.org/2000/svg">
<g clip-path="url(#clip0_131_2082)">
<path d="M11.542 15.1982C13.1298 15.1982 14.417 13.9111 14.417 12.3232C14.417 10.7354 13.1298 9.44824 11.542 9.44824C9.95417 9.44824 8.66699 10.7354 8.66699 12.3232C8.66699 13.9111 9.95417 15.1982 11.542 15.1982Z" stroke="#000" stroke-width="1.4375"/>
<path d="M3.55039 11.02C4.00369 11.3037 4.29502 11.7886 4.29502 12.3233C4.29502 12.8581 4.00369 13.343 3.55039 13.6267C3.24277 13.8212 3.04344 13.9755 2.90256 14.1595C2.74931 14.3592 2.63692 14.5872 2.57181 14.8304C2.50669 15.0736 2.49013 15.3273 2.52306 15.5769C2.57289 15.9544 2.79619 16.3416 3.24181 17.115C3.68935 17.8884 3.91264 18.2746 4.21452 18.5074C4.41427 18.6607 4.64226 18.7731 4.88545 18.8382C5.12865 18.9033 5.38229 18.9199 5.63189 18.8869C5.86189 18.8563 6.09477 18.7624 6.41677 18.5918C6.64721 18.4657 6.90593 18.4002 7.16861 18.4016C7.4313 18.4029 7.68934 18.471 7.91848 18.5994C8.38135 18.8678 8.65639 19.3613 8.67556 19.8961C8.68898 20.2602 8.72348 20.5094 8.8126 20.7231C8.90893 20.9558 9.05017 21.1673 9.22825 21.3453C9.40634 21.5234 9.61778 21.6647 9.85048 21.761C10.2022 21.9067 10.6488 21.9067 11.5419 21.9067C12.4351 21.9067 12.8817 21.9067 13.2334 21.761C13.4661 21.6647 13.6775 21.5234 13.8556 21.3453C14.0337 21.1673 14.1749 20.9558 14.2713 20.7231C14.3594 20.5094 14.3949 20.2602 14.4083 19.8961C14.4275 19.3613 14.7025 18.8668 15.1654 18.5994C15.3945 18.471 15.6526 18.4029 15.9153 18.4016C16.1779 18.4002 16.4367 18.4657 16.6671 18.5918C16.9891 18.7624 17.2229 18.8563 17.4529 18.8869C17.9567 18.9532 18.4662 18.8167 18.8694 18.5074C19.1712 18.2755 19.3945 17.8884 19.8411 17.115C20.0404 16.77 20.1947 16.5026 20.3097 16.2784M19.5335 13.6276C19.3091 13.4912 19.1231 13.3001 18.9928 13.0721C18.8626 12.8441 18.7924 12.5868 18.7889 12.3243C18.7889 11.7886 19.0802 11.3037 19.5335 11.019C19.8411 10.8254 20.0395 10.6712 20.1813 10.4872C20.3346 10.2874 20.4469 10.0594 20.5121 9.81622C20.5772 9.57303 20.5937 9.31938 20.5608 9.06978C20.511 8.6922 20.2877 8.30503 19.8421 7.53166C19.3945 6.75828 19.1712 6.37207 18.8694 6.1392C18.6696 5.98595 18.4416 5.87356 18.1984 5.80845C17.9552 5.74333 17.7016 5.72677 17.452 5.7597C17.222 5.79037 16.9891 5.88428 16.6661 6.05487C16.4358 6.18081 16.1773 6.24617 15.9148 6.24483C15.6523 6.24349 15.3944 6.17549 15.1654 6.0472C14.9397 5.91294 14.7518 5.72351 14.6193 5.4967C14.4869 5.26989 14.4143 5.01315 14.4083 4.75057C14.3949 4.38641 14.3604 4.13724 14.2713 3.92353C14.1749 3.69083 14.0337 3.47939 13.8556 3.30131C13.6775 3.12322 13.4661 2.98198 13.2334 2.88566C12.8817 2.73999 12.4351 2.73999 11.5419 2.73999C10.6488 2.73999 10.2022 2.73999 9.85048 2.88566C9.61778 2.98198 9.40634 3.12322 9.22825 3.30131C9.05017 3.47939 8.90893 3.69083 8.8126 3.92353C8.72444 4.13724 8.68898 4.38641 8.67556 4.75057C8.66959 5.01315 8.59698 5.26989 8.46455 5.4967C8.33212 5.72351 8.14421 5.91294 7.91848 6.0472C7.68934 6.17566 7.4313 6.24375 7.16861 6.2451C6.90593 6.24644 6.64721 6.18098 6.41677 6.05487C6.09477 5.88428 5.86094 5.79037 5.63094 5.7597C5.12716 5.69345 4.61769 5.82995 4.21452 6.1392C3.9136 6.37207 3.68935 6.75828 3.24277 7.53166C3.04344 7.87666 2.88914 8.14403 2.77414 8.36828" stroke="#000" stroke-width="1.4375" stroke-linecap="round"/>
</g>
<defs>
<clipPath id="clip0_131_2082">
<rect width="22.88" height="22.88" fill="white"/>
</clipPath>
</defs>
</svg>
